<?xml version="1.0" encoding="UTF-8"?>
<svg width="85px" height="105px" version="1.1" viewBox="0 0 752 752" xmlns="http://www.w3.org/2000/svg">
 <defs>
  <clipPath id="a">
   <path d="m267 139.21h218v473.58h-218z"/>
  </clipPath>
 </defs>
 <g clip-path="url(#a)">
  <path d="m484.75 588.58v24.215h-217.5v-24.215h8.8789c1.7461-21.984 13.977-40.715 32.66-49.5h-8.5898c-19.312 0-18.879-29.02 0-29.02h17.324l24.168-165.87h-16.258c-21.062 0-20.574-31.641 0-31.641h2.4258c-6.3555-7.375-5.0469-18.879 3.8828-24.117-20.141-40.812 6.4062-87.352 32.805-118.46-3.6406-3.0586-6.0664-7.668-6.0664-13.246 0-9.6562 7.8633-17.52 17.52-17.52 15.867 0 23.68 19.652 11.793 30.523 5.4336 6.2109 11.113 13.297 15.965 20.285l-29.988 54.641c-1.2148 2.2305 2.1836 4.0781 3.3984 1.8438l29.066-52.895c5.8242 9.5586 10.336 17.324 14.508 28.582 7.668 20.723 9.6094 46.102 0.24219 66.676 7.4727 4.9492 9.9492 16.062 3.2031 23.68h2.3789c21.062 0 20.625 31.641 0 31.641h-16.258l24.215 165.87h17.324c19.266 0 18.879 29.02 0 29.02h-8.5898c18.633 8.7852 30.91 27.516 32.609 49.5h8.8789zm-147.96-301.99c0.96875-0.19531 1.9414-0.29297 2.9102-0.29297h72.598c1.3086 0 2.5703 0.14453 3.7852 0.4375 12.035-26.301 4.0273-58.281-9.6562-82.305l-24.555 44.645c-4.6602 8.5391-17.371 1.3086-12.812-7.0352l28.387-51.684c-4.3672-6.1133-9.125-12.035-14.172-17.664-4.4141 2.0859-9.707 2.0859-14.121 0.14453-25.09 29.262-51.973 74.977-32.367 113.75zm75.508 5.0938h-72.598c-13.832 0-13.586 20.867 0 20.867h72.598c13.832 0 13.637-20.816 0-20.867zm-29.215-125.11c6.0156-4.4141 6.8438-13.102 1.5039-18.441-7.6172-7.6172-20.723-2.1836-20.723 8.5898 0 10.289 10.48 14.898 19.219 9.8516zm-101.71 422h189.26c-1.4062-27.516-24.359-49.5-52.117-49.5h-85.02c-27.711 0-50.711 21.984-52.117 49.5zm145.2-270.64h-101.13c-13.879 0-13.586 20.867 0 20.867h101.13c13.879 0 13.586-20.867 0-20.867zm-21.691 26.254h-57.746l-24.168 165.87h106.13zm46.977 171.25h-151.65c-12.133 0-11.891 18.246 0 18.246h151.65c12.082 0 11.84-18.246 0-18.246zm27.516 78.52h-206.73v13.441h206.73z"/>
 </g>
</svg>
