<?xml version="1.0" encoding="UTF-8"?>
<svg width="85px" height="80px" version="1.1" viewBox="0 0 752 752" xmlns="http://www.w3.org/2000/svg">
 <defs>
  <clipPath id="a">
   <path d="m233 139.21h286v473.58h-286z"/>
  </clipPath>
 </defs>
 <g clip-path="url(#a)">
  <path d="m518.73 581.01v31.781h-285.45v-31.781h11.656c2.293-28.914 18.344-53.434 42.863-64.961h-11.273c-25.348 0-24.773-38.086 0-38.086h22.738l31.652-195.2h-4.2656c-25.348 0-24.773-38.086 0-38.086h5.668c-7.5156-7.8984-13.883-20.188-15.984-28.531-9.9336-38.531 19.297-76.871 59.039-76.934 40.887-0.0625 70.375 37.449 60.375 76.809-2.1641 8.4062-8.4688 20.762-16.051 28.66h5.668c25.348 0 24.773 38.086 0 38.086h-4.2656l31.652 195.2h22.801c25.285 0 24.773 38.086 0 38.086h-11.273c24.457 11.527 40.57 36.047 42.797 64.961h11.656zm-175.14-336.34h64.898c9.4258-7.0039 16.43-16.941 19.809-28.215 10.57-35.281-16.305-70.629-52.926-70.184-36.109 0.38281-62.16 35.539-51.586 70.375 3.375 11.211 10.383 21.016 19.809 28.023zm-91.773 336.34h248.38c-1.8477-36.109-31.973-64.961-68.402-64.961h-111.58c-36.367 0-66.555 28.852-68.402 64.961zm173.55-329.27h-98.715c-15.922 0-15.539 23.945 0 23.945h98.715c15.922 0 15.539-23.945 0-23.945zm-11.398 31.016h-75.852l-31.652 195.2h139.16zm61.586 202.27h-199.02c-15.922 0-15.602 23.945 0 23.945h199.02c15.859 0 15.539-23.945 0-23.945zm36.109 103.05h-271.31v17.641h271.31z"/>
 </g>
</svg>
