<?xml version="1.0" encoding="UTF-8"?>
<svg width="85px" height="80px" version="1.1" viewBox="0 0 752 752" xmlns="http://www.w3.org/2000/svg">
 <defs>
  <clipPath id="a">
   <path d="m188 139.21h376v473.58h-376z"/>
  </clipPath>
 </defs>
 <g clip-path="url(#a)">
  <path d="m226.32 522.04c24.188-12.484 37.242-7.5625 51.438-38.598-31.605 0-27.609-40.523-2.3555-40.523h4.4219c0.35547-39.738 12.844-61.785 30.25-92.605 6.207-10.914 12.984-23.043 20.191-37.598-24.543 1.4258-31.461-2.5703-57.719 6.5625-9.7734 3.3516-19.477 6.707-30.465 7.418-19.121-5.8516-24.828-41.449-24.328-58.504 21.762-18.906 41.734-16.695 57.574-46.945 13.77-26.398 37.242-29.68 63.426-40.168-0.21484-28.465 2.4961-27.824 9.2031-41.879 33.602 4.2812 45.375 24.898 68.348 44.305 15.195 12.844 26.184 23.043 36.957 39.953 11.199 17.266 23.543 36.312 30.465 92.32 3.9258 34.602-0.92578 60.145-6.207 87.609-2.5703 13.484-4.707 25.184-6.4922 39.523h3.8516c25.398 0 29.25 40.523-2.3555 40.523 14.199 31.035 27.039 26.039 51.438 38.598 17.691 9.1328 22.543 31.32 23.117 50.156h16.766v40.594h-375.7v-40.594h15.125c0.57031-18.406 4.9922-40.879 23.043-50.156zm61.355-79.121h175.36c1.7852-14.84 4.2812-28.109 6.707-40.953 5.1367-26.898 9.918-51.797 6.1367-85.184-6.707-54.293-18.551-72.484-29.25-89.039-10.559-16.266-20.691-25.754-35.457-38.168-18.906-16.051-32.816-36.527-58.645-41.734-5.0664 9.7031-6.1367 11.629-5.7773 38.527-24.258 9.418-51.867 14.484-64.422 38.527-16.91 32.246-33.676 28.609-56.719 47.086-0.21484 16.695 4.0664 35.602 17.48 46.73 9.418-0.85547 18.121-3.9258 26.898-6.9219 29.324-10.129 39.598-3.9258 66.422-7.6328l7.207-1c-8.3477 17.551-17.121 34.102-26.684 51.082-16.766 29.68-28.824 51.012-29.25 88.68zm187.21 32.605c15.41 0 17.766-24.543-1.2852-24.684-65.922-0.64062-132.2 0-198.2 0-15.48 0-17.195 23.828 0 24.684 62.926 3.2812 135.48 0 199.48 0zm45.445 53.578c-25.398-13.129-40.094-7.418-56.434-45.66h-177.5c-16.336 38.242-31.035 32.531-56.434 45.66-14.695 7.4922-18.336 27.609-18.762 43.09h327.9c-0.42969-15.48-4.0664-35.602-18.762-43.09zm-324.26 51.012v24.758h359.86v-24.758z"/>
 </g>
</svg>
