<?xml version="1.0" encoding="UTF-8"?>
<svg fill = "maroon" width="85px" height="80px" version="1.1" viewBox="0 0 752 752" xmlns="http://www.w3.org/2000/svg">
 <defs>
  <clipPath id="a">
   <path d="m241 139.21h270v473.58h-270z"/>
  </clipPath>
 </defs>
 <g clip-path="url(#a)">
  <path d="m276.85 532.7c-13.84-7.9062-10.426-33.551 9.2852-33.551h5.0938l21.449-261.32c-11.504-4.1953-13.777-19.172-7.25-27.977h-15.277v-70.633h39.66v31.992h26.359v-31.992h39.66v31.992h26.359v-31.992h39.66v70.633h-15.156c6.4688 8.7461 3.8945 23.664-7.3672 27.977l21.508 261.32h5.0312c20.129 0 22.887 25.52 9.2266 33.488 15.336 13.18 22.887 30.375 24.262 50.266h10.902v29.895h-268.51v-29.895h10.902c1.3789-19.891 8.9258-37.082 24.203-50.203zm178.35-329.5v-57.332h-26.359v31.992h-39.66v-31.992h-26.359v31.992h-39.66v-31.992h-26.359v57.332zm-22.465 35.766h-113.47l-21.387 260.18h156.24zm-113.23-6.6484h113.05c17.016-2.3945 12.762-22.465 0-22.465h-113.05c-13.301 0-16.594 20.25 0 22.465zm147.91 302.66h-182.84c-15.039 11.504-24.441 28.996-25.402 47.926h233.64c-0.95703-18.93-10.305-36.426-25.402-47.926zm-1.5586-29.176h-179.73c-14.918 0-14.617 22.527 0 22.527h179.73c14.977 0 14.617-22.527 0-22.527zm37.742 83.754h-255.21v16.594h255.21z"/>
 </g>
</svg>
